<svg width="144" height="48" viewBox="0 0 144 48" fill="none" xmlns="http://www.w3.org/2000/svg">
<g clip-path="url(#clip0_0_1321)">
<path d="M132.533 0.000156H11.4737C11.0325 0.000156 10.5965 0.000156 10.1564 0.002556C9.78796 0.004956 9.42249 0.011928 9.05054 0.017796C8.24249 0.0272782 7.43635 0.0981675 6.63911 0.229848C5.84299 0.364395 5.07181 0.618055 4.35165 0.982248C3.63237 1.34952 2.97514 1.82676 2.40381 2.39664C1.82948 2.96492 1.35074 3.62178 0.98598 4.34195C0.620217 5.06069 0.366595 5.83088 0.233875 6.62593C0.0998928 7.41998 0.0277959 8.22318 0.018231 9.02833C0.00706378 9.39625 0.00588447 9.7654 0 10.1334V37.8705C0.00588447 38.2431 0.00706378 38.604 0.018231 38.9768C0.0277988 39.7819 0.0998957 40.585 0.233875 41.379C0.366228 42.1745 0.619865 42.9452 0.98598 43.6642C1.35057 44.382 1.82939 45.0362 2.40381 45.6014C2.97298 46.1738 3.63063 46.6513 4.35165 47.0158C5.0718 47.381 5.8429 47.6361 6.63911 47.7728C7.43648 47.9034 8.24254 47.9743 9.05054 47.9849C9.42249 47.9931 9.78796 47.9978 10.1564 47.9978C10.5965 48.0002 11.0325 48.0002 11.4737 48.0002H132.533C132.965 48.0002 133.405 48.0002 133.837 47.9978C134.204 47.9978 134.58 47.9931 134.947 47.9849C135.753 47.9749 136.558 47.9039 137.353 47.7728C138.152 47.6352 138.926 47.3801 139.65 47.0158C140.37 46.6511 141.027 46.1736 141.596 45.6014C142.169 45.034 142.648 44.3803 143.018 43.6642C143.381 42.9447 143.632 42.1741 143.763 41.379C143.897 40.5849 143.971 39.7819 143.986 38.9768C143.991 38.604 143.991 38.2431 143.991 37.8705C144 37.4345 144 37.001 144 36.5579V11.4435C144 11.0041 144 10.5681 143.991 10.1334C143.991 9.7654 143.991 9.39625 143.986 9.02828C143.971 8.22306 143.897 7.42004 143.763 6.62588C143.632 5.83129 143.381 5.06116 143.018 4.3419C142.275 2.89839 141.097 1.72339 139.65 0.98214C138.926 0.618837 138.152 0.365245 137.353 0.22974C136.558 0.0974794 135.753 0.0265653 134.947 0.017628C134.58 0.011772 134.204 0.00474 133.837 0.0024C133.405 0 132.965 0 132.533 0V0.000156Z" fill="#A6A6A6"/>
<path d="M10.1622 46.9503C9.79559 46.9503 9.4378 46.9456 9.07403 46.9375C8.32046 46.9277 7.56865 46.8622 6.82477 46.7417C6.13114 46.6226 5.45919 46.401 4.8311 46.0843C4.20877 45.7701 3.64115 45.3582 3.14999 44.8643C2.65173 44.3763 2.2369 43.8102 1.92194 43.1885C1.60352 42.5628 1.38315 41.8922 1.26852 41.1999C1.14472 40.456 1.07774 39.7039 1.06815 38.9499C1.06053 38.6968 1.05054 37.8542 1.05054 37.8542V10.1335C1.05054 10.1335 1.06117 9.30381 1.06821 9.06005C1.07739 8.30727 1.14398 7.55628 1.26741 6.81357C1.38226 6.11939 1.6028 5.44679 1.92139 4.81905C2.23519 4.19783 2.64771 3.63133 3.14298 3.14151C3.63769 2.64704 4.20712 2.23302 4.83051 1.91454C5.45716 1.59881 6.12783 1.37877 6.82006 1.26182C7.56639 1.1401 8.32081 1.07429 9.07699 1.06494L10.1628 1.05029H133.831L134.93 1.06553C135.679 1.07441 136.427 1.13963 137.166 1.26064C137.866 1.37906 138.543 1.60063 139.177 1.91806C140.426 2.55988 141.442 3.57529 142.083 4.82198C142.397 5.44539 142.614 6.1125 142.727 6.80068C142.852 7.54948 142.922 8.30638 142.936 9.06533C142.94 9.40517 142.94 9.77021 142.94 10.1335C142.949 10.5835 142.949 11.0118 142.949 11.4436V36.5581C142.949 36.994 142.949 37.4194 142.94 37.8483C142.94 38.2385 142.94 38.596 142.935 38.9639C142.921 39.7093 142.852 40.4527 142.73 41.1881C142.617 41.8854 142.398 42.5613 142.08 43.1921C141.763 43.807 141.35 44.3682 140.858 44.855C140.366 45.3515 139.797 45.7658 139.174 46.082C138.542 46.4012 137.865 46.6236 137.166 46.7417C136.423 46.8629 135.671 46.9283 134.917 46.9375C134.565 46.9456 134.196 46.9503 133.837 46.9503L132.533 46.9527L10.1622 46.9503Z" fill="black"/>
<path d="M29.8061 24.3608C29.819 23.3592 30.0858 22.3771 30.5816 21.506C31.0774 20.6348 31.7862 19.9029 32.6419 19.3783C32.0983 18.6041 31.3811 17.967 30.5474 17.5175C29.7137 17.0681 28.7863 16.8187 27.839 16.7891C25.8183 16.5776 23.8593 17.9949 22.8295 17.9949C21.7799 17.9949 20.1944 16.8101 18.4872 16.8451C17.3829 16.8807 16.3067 17.2009 15.3634 17.7746C14.4201 18.3483 13.6419 19.1558 13.1046 20.1186C10.7773 24.1367 12.5133 30.0419 14.7426 33.2899C15.858 34.8803 17.1616 36.6568 18.8673 36.5938C20.5365 36.5248 21.1599 35.5324 23.1747 35.5324C25.1708 35.5324 25.7557 36.5938 27.496 36.5538C29.2871 36.5248 30.4155 34.9563 31.4918 33.3508C32.2932 32.2176 32.9099 30.9651 33.319 29.6398C32.2784 29.2009 31.3904 28.4663 30.7657 27.5275C30.1411 26.5888 29.8073 25.4874 29.8061 24.3608Z" fill="white"/>
<path d="M26.5189 14.6531C27.4955 13.484 27.9766 11.9814 27.8601 10.4644C26.3681 10.6206 24.99 11.3317 24.0002 12.4559C23.5163 13.0051 23.1456 13.644 22.9095 14.3361C22.6733 15.0283 22.5763 15.76 22.6239 16.4896C23.3702 16.4972 24.1084 16.3359 24.7831 16.0178C25.4578 15.6997 26.0513 15.2331 26.5189 14.6531Z" fill="white"/>
<path d="M50.9052 32.5677H45.2092L43.8413 36.5954H41.4286L46.8238 21.6938H49.3305L54.7256 36.5954H52.2719L50.9052 32.5677ZM45.7991 30.7091H50.3141L48.0884 24.1724H48.0261L45.7991 30.7091Z" fill="white"/>
<path d="M66.3774 31.1637C66.3774 34.5399 64.5653 36.709 61.8307 36.709C61.1379 36.7452 60.449 36.5861 59.8428 36.2499C59.2365 35.9137 58.7374 35.4141 58.4027 34.8082H58.351V40.1895H56.1146V25.7309H58.2793V27.5379H58.3204C58.6706 26.935 59.1781 26.438 59.7889 26.0997C60.3998 25.7615 61.0912 25.5948 61.7895 25.6172C64.5546 25.6172 66.3774 27.7969 66.3774 31.1637ZM64.0787 31.1637C64.0787 28.9641 62.9388 27.518 61.1996 27.518C59.4909 27.518 58.3416 28.9946 58.3416 31.1637C58.3416 33.3528 59.4909 34.8188 61.1996 34.8188C62.9388 34.8188 64.0787 33.3833 64.0787 31.1637Z" fill="white"/>
<path d="M78.3688 31.1637C78.3688 34.5399 76.5567 36.709 73.8221 36.709C73.1293 36.7452 72.4404 36.586 71.8342 36.2499C71.2279 35.9137 70.7288 35.4141 70.3941 34.8082H70.3424V40.1895H68.106V25.7309H70.2707V27.5379H70.3118C70.6619 26.935 71.1694 26.438 71.7803 26.0997C72.3912 25.7615 73.0825 25.5948 73.7809 25.6172C76.5461 25.6172 78.3688 27.7969 78.3688 31.1637ZM76.0701 31.1637C76.0701 28.9641 74.9302 27.518 73.191 27.518C71.4823 27.518 70.333 28.9946 70.333 31.1637C70.333 33.3528 71.4823 34.8188 73.191 34.8188C74.9302 34.8188 76.0702 33.3833 76.0702 31.1637H76.0701Z" fill="white"/>
<path d="M86.2941 32.4434C86.4598 33.9212 87.8994 34.8914 89.8666 34.8914C91.7515 34.8914 93.1077 33.9211 93.1077 32.5887C93.1077 31.432 92.2898 30.7395 90.3531 30.2649L88.4164 29.7996C85.6724 29.1387 84.3985 27.859 84.3985 25.7824C84.3985 23.2113 86.6455 21.4453 89.836 21.4453C92.9937 21.4453 95.1583 23.2113 95.2312 25.7824H92.9737C92.8386 24.2953 91.6058 23.3977 89.8043 23.3977C88.0027 23.3977 86.77 24.3059 86.77 25.6277C86.77 26.6813 87.5574 27.3012 89.4834 27.7757L91.1298 28.1789C94.1958 28.9019 95.4697 30.1301 95.4697 32.3097C95.4697 35.0976 93.2428 36.8437 89.7008 36.8437C86.3869 36.8437 84.1494 35.1386 84.0048 32.4433L86.2941 32.4434Z" fill="white"/>
<path d="M100.296 23.1597V25.7308H102.368V27.4968H100.296V33.4862C100.296 34.4167 100.711 34.8503 101.622 34.8503C101.868 34.846 102.113 34.8288 102.357 34.7987V36.5542C101.948 36.6305 101.532 36.665 101.115 36.6573C98.9095 36.6573 98.0493 35.8311 98.0493 33.7241V27.4968H96.4651V25.7308H98.0492V23.1597H100.296Z" fill="white"/>
<path d="M103.568 31.1636C103.568 27.7452 105.587 25.5972 108.735 25.5972C111.894 25.5972 113.903 27.7452 113.903 31.1636C113.903 34.5913 111.904 36.73 108.735 36.73C105.567 36.73 103.568 34.5913 103.568 31.1636ZM111.625 31.1636C111.625 28.8187 110.547 27.4347 108.735 27.4347C106.923 27.4347 105.847 28.8292 105.847 31.1636C105.847 33.5179 106.923 34.8913 108.735 34.8913C110.547 34.8913 111.625 33.5179 111.625 31.1636H111.625Z" fill="white"/>
<path d="M115.747 25.7308H117.88V27.58H117.932C118.076 27.0025 118.416 26.4921 118.893 26.1346C119.37 25.7771 119.956 25.5944 120.553 25.6171C120.81 25.6162 121.067 25.6441 121.319 25.7003V27.7863C120.993 27.6871 120.654 27.6416 120.314 27.6515C119.989 27.6384 119.665 27.6955 119.365 27.8189C119.064 27.9424 118.794 28.1293 118.572 28.3668C118.351 28.6042 118.184 28.8867 118.082 29.1947C117.98 29.5027 117.947 29.829 117.984 30.1511V36.5953H115.747L115.747 25.7308Z" fill="white"/>
<path d="M131.63 33.4042C131.329 35.3765 129.403 36.73 126.938 36.73C123.769 36.73 121.802 34.6124 121.802 31.2151C121.802 27.8073 123.779 25.5972 126.844 25.5972C129.859 25.5972 131.754 27.662 131.754 30.9561V31.7202H124.059V31.855C124.024 32.2548 124.074 32.6576 124.206 33.0366C124.339 33.4156 124.551 33.7622 124.828 34.0532C125.105 34.3443 125.442 34.5732 125.814 34.7248C126.187 34.8763 126.588 34.9471 126.99 34.9323C127.519 34.9817 128.049 34.8596 128.502 34.5843C128.956 34.309 129.308 33.8951 129.506 33.4042L131.63 33.4042ZM124.07 30.1616H129.517C129.537 29.8021 129.482 29.4423 129.356 29.1049C129.23 28.7674 129.036 28.4596 128.785 28.2007C128.534 27.9417 128.232 27.7373 127.898 27.6003C127.564 27.4632 127.205 27.3965 126.844 27.4042C126.48 27.402 126.119 27.4718 125.782 27.6095C125.445 27.7472 125.139 27.9501 124.881 28.2064C124.623 28.4628 124.418 28.7676 124.279 29.1031C124.14 29.4387 124.069 29.7985 124.07 30.1616V30.1616Z" fill="white"/>
<path d="M45.5189 10.4774C45.9877 10.4438 46.4582 10.5144 46.8964 10.6842C47.3345 10.8539 47.7294 11.1185 48.0527 11.4588C48.3759 11.7992 48.6193 12.2068 48.7654 12.6523C48.9115 13.0978 48.9566 13.5702 48.8975 14.0352C48.8975 16.3227 47.6577 17.6376 45.5189 17.6376H42.9253V10.4774H45.5189ZM44.0405 16.625H45.3943C45.7293 16.6449 46.0646 16.5902 46.3757 16.4646C46.6868 16.3391 46.966 16.1459 47.1928 15.8993C47.4196 15.6526 47.5884 15.3586 47.6869 15.0386C47.7855 14.7187 47.8112 14.3809 47.7623 14.0498C47.8076 13.72 47.7793 13.3842 47.6793 13.0666C47.5793 12.749 47.41 12.4574 47.1837 12.2127C46.9574 11.968 46.6796 11.7762 46.3703 11.6512C46.0609 11.5261 45.7276 11.4708 45.3943 11.4892H44.0405V16.625Z" fill="white"/>
<path d="M50.1572 14.9335C50.1232 14.5784 50.1639 14.2202 50.2768 13.8817C50.3898 13.5432 50.5724 13.232 50.813 12.968C51.0536 12.704 51.3469 12.4931 51.674 12.3488C52.0011 12.2044 52.3549 12.1299 52.7126 12.1299C53.0703 12.1299 53.4241 12.2044 53.7513 12.3488C54.0784 12.4931 54.3717 12.704 54.6123 12.968C54.8529 13.232 55.0355 13.5432 55.1484 13.8817C55.2614 14.2202 55.3021 14.5784 55.268 14.9335C55.3027 15.289 55.2625 15.6478 55.1499 15.9868C55.0372 16.3258 54.8547 16.6376 54.6141 16.9021C54.3734 17.1666 54.0799 17.378 53.7524 17.5226C53.425 17.6673 53.0708 17.742 52.7126 17.742C52.3545 17.742 52.0003 17.6673 51.6728 17.5226C51.3454 17.378 51.0519 17.1666 50.8112 16.9021C50.5705 16.6376 50.388 16.3258 50.2754 15.9868C50.1628 15.6478 50.1225 15.289 50.1572 14.9335ZM54.1681 14.9335C54.1681 13.7623 53.6404 13.0773 52.7144 13.0773C51.7848 13.0773 51.2619 13.7623 51.2619 14.9335C51.2619 16.1142 51.7849 16.7939 52.7144 16.7939C53.6404 16.7939 54.1681 16.1095 54.1681 14.9335H54.1681Z" fill="white"/>
<path d="M62.0617 17.6374H60.9524L59.8324 13.6577H59.7478L58.6326 17.6374H57.5338L56.0402 12.2339H57.1248L58.0955 16.3571H58.1754L59.2895 12.2339H60.3154L61.4295 16.3571H61.5141L62.4801 12.2339H63.5495L62.0617 17.6374Z" fill="white"/>
<path d="M64.8057 12.2341H65.8351V13.0925H65.915C66.0506 12.7842 66.2792 12.5258 66.5691 12.3532C66.8589 12.1806 67.1956 12.1026 67.5321 12.1298C67.7957 12.1101 68.0604 12.1497 68.3067 12.2458C68.5529 12.3419 68.7742 12.4921 68.9543 12.6851C69.1345 12.8781 69.2687 13.109 69.3472 13.3608C69.4257 13.6126 69.4463 13.8788 69.4076 14.1396V17.6376H68.3382V14.4074C68.3382 13.539 67.9598 13.1072 67.1689 13.1072C66.9899 13.0989 66.8112 13.1293 66.6451 13.1962C66.4789 13.2632 66.3293 13.3653 66.2064 13.4953C66.0835 13.6254 65.9903 13.7804 65.9331 13.9498C65.8759 14.1191 65.8561 14.2988 65.8751 14.4765V17.6377H64.8057L64.8057 12.2341Z" fill="white"/>
<path d="M71.1116 10.1245H72.181V17.6374H71.1116V10.1245Z" fill="white"/>
<path d="M73.6676 14.9331C73.6335 14.578 73.6743 14.2197 73.7872 13.8812C73.9002 13.5427 74.0828 13.2315 74.3235 12.9675C74.5641 12.7035 74.8574 12.4926 75.1846 12.3483C75.5117 12.204 75.8655 12.1294 76.2233 12.1294C76.581 12.1294 76.9348 12.204 77.262 12.3483C77.5891 12.4926 77.8824 12.7035 78.1231 12.9675C78.3637 13.2315 78.5463 13.5427 78.6593 13.8812C78.7722 14.2197 78.813 14.578 78.779 14.9331C78.8136 15.2886 78.7733 15.6474 78.6607 15.9864C78.548 16.3255 78.3655 16.6372 78.1248 16.9017C77.8841 17.1662 77.5906 17.3776 77.2631 17.5222C76.9356 17.6668 76.5814 17.7416 76.2233 17.7416C75.8651 17.7416 75.5109 17.6668 75.1834 17.5222C74.8559 17.3776 74.5624 17.1662 74.3217 16.9017C74.0811 16.6372 73.8985 16.3255 73.7859 15.9864C73.6732 15.6474 73.6329 15.2886 73.6676 14.9331ZM77.6784 14.9331C77.6784 13.7619 77.1508 13.0769 76.2247 13.0769C75.2952 13.0769 74.7723 13.7619 74.7723 14.9332C74.7723 16.1138 75.2952 16.7935 76.2247 16.7935C77.1508 16.7935 77.6784 16.1091 77.6784 14.9331H77.6784Z" fill="white"/>
<path d="M79.9048 16.1091C79.9048 15.1364 80.631 14.5757 81.9202 14.496L83.388 14.4116V13.9452C83.388 13.3745 83.0096 13.0522 82.2786 13.0522C81.6816 13.0522 81.268 13.2708 81.1493 13.6528H80.114C80.2233 12.7247 81.0988 12.1294 82.328 12.1294C83.6865 12.1294 84.4527 12.8038 84.4527 13.9452V17.6372H83.4232V16.8778H83.3386C83.1669 17.1502 82.9257 17.3723 82.6398 17.5213C82.3538 17.6704 82.0333 17.7411 81.711 17.7262C81.4835 17.7498 81.2536 17.7256 81.0361 17.6552C80.8186 17.5847 80.6183 17.4696 80.4481 17.3173C80.2779 17.1649 80.1417 16.9787 80.0481 16.7706C79.9545 16.5625 79.9057 16.3371 79.9048 16.1091ZM83.388 15.6474V15.1956L82.0647 15.28C81.3185 15.3298 80.9801 15.5829 80.9801 16.0593C80.9801 16.5456 81.4031 16.8286 81.9849 16.8286C82.1553 16.8458 82.3275 16.8286 82.4912 16.7781C82.6548 16.7276 82.8066 16.6448 82.9375 16.5346C83.0684 16.4244 83.1758 16.289 83.2532 16.1366C83.3306 15.9842 83.3764 15.8178 83.388 15.6474Z" fill="white"/>
<path d="M85.8582 14.9333C85.8582 13.2259 86.7384 12.1443 88.1074 12.1443C88.4461 12.1287 88.7822 12.2096 89.0764 12.3775C89.3707 12.5453 89.6109 12.7933 89.7691 13.0923H89.849V10.1245H90.9184V17.6374H89.8937V16.7837H89.8091C89.6387 17.0807 89.39 17.3255 89.0901 17.4917C88.7901 17.6579 88.4503 17.7391 88.1074 17.7265C86.729 17.7265 85.8582 16.6448 85.8582 14.9333ZM86.9628 14.9333C86.9628 16.0794 87.5046 16.7691 88.4107 16.7691C89.312 16.7691 89.869 16.0695 89.869 14.938C89.869 13.8118 89.3061 13.1023 88.4107 13.1023C87.5104 13.1023 86.9628 13.7966 86.9628 14.9333H86.9628Z" fill="white"/>
<path d="M95.3429 14.9335C95.3088 14.5784 95.3496 14.2202 95.4625 13.8817C95.5754 13.5432 95.758 13.232 95.9986 12.968C96.2392 12.704 96.5325 12.4931 96.8597 12.3488C97.1868 12.2044 97.5406 12.1299 97.8983 12.1299C98.256 12.1299 98.6098 12.2044 98.9369 12.3488C99.2641 12.4931 99.5573 12.704 99.7979 12.968C100.039 13.232 100.221 13.5432 100.334 13.8817C100.447 14.2202 100.488 14.5784 100.454 14.9335C100.488 15.289 100.448 15.6478 100.336 15.9868C100.223 16.3258 100.04 16.6376 99.7997 16.9021C99.5591 17.1666 99.2656 17.378 98.9381 17.5226C98.6106 17.6673 98.2564 17.742 97.8983 17.742C97.5401 17.742 97.186 17.6673 96.8585 17.5226C96.531 17.378 96.2375 17.1666 95.9969 16.9021C95.7562 16.6376 95.5737 16.3258 95.4611 15.9868C95.3484 15.6478 95.3082 15.289 95.3429 14.9335ZM99.3537 14.9335C99.3537 13.7623 98.8261 13.0773 97.9001 13.0773C96.9705 13.0773 96.4476 13.7623 96.4476 14.9335C96.4476 16.1142 96.9705 16.7939 97.9001 16.7939C98.8261 16.7939 99.3537 16.1095 99.3537 14.9335Z" fill="white"/>
<path d="M101.889 12.2341H102.918V13.0925H102.998C103.134 12.7842 103.362 12.5258 103.652 12.3532C103.942 12.1806 104.279 12.1026 104.615 12.1298C104.879 12.1101 105.143 12.1497 105.39 12.2458C105.636 12.3419 105.857 12.4921 106.037 12.6851C106.217 12.8781 106.352 13.109 106.43 13.3608C106.509 13.6126 106.529 13.8788 106.491 14.1396V17.6376H105.421V14.4074C105.421 13.539 105.043 13.1072 104.252 13.1072C104.073 13.0989 103.894 13.1293 103.728 13.1962C103.562 13.2632 103.412 13.3653 103.289 13.4953C103.166 13.6254 103.073 13.7804 103.016 13.9498C102.959 14.1191 102.939 14.2988 102.958 14.4765V17.6377H101.889V12.2341Z" fill="white"/>
<path d="M112.533 10.8887V12.2586H113.707V13.1568H112.533V15.9354C112.533 16.5014 112.767 16.7492 113.299 16.7492C113.436 16.7488 113.572 16.7406 113.707 16.7246V17.6129C113.515 17.6471 113.321 17.6654 113.125 17.6674C111.936 17.6674 111.463 17.2502 111.463 16.2084V13.1568H110.602V12.2585H111.463V10.8887H112.533Z" fill="white"/>
<path d="M115.168 10.1245H116.228V13.1023H116.313C116.455 12.7911 116.69 12.5312 116.985 12.3579C117.281 12.1847 117.623 12.1066 117.965 12.1343C118.227 12.1201 118.489 12.1637 118.733 12.2622C118.976 12.3606 119.195 12.5114 119.373 12.7038C119.551 12.8962 119.685 13.1255 119.764 13.3753C119.843 13.625 119.866 13.8891 119.831 14.1487V17.6374H118.76V14.4118C118.76 13.5487 118.357 13.1116 117.602 13.1116C117.418 13.0966 117.233 13.1218 117.06 13.1854C116.887 13.2491 116.73 13.3497 116.6 13.4802C116.47 13.6107 116.37 13.7679 116.308 13.9409C116.245 14.1138 116.221 14.2984 116.237 14.4815V17.6374H115.168L115.168 10.1245Z" fill="white"/>
<path d="M126.066 16.1783C125.921 16.6722 125.606 17.0993 125.177 17.3851C124.748 17.6709 124.232 17.7971 123.718 17.7416C123.361 17.751 123.007 17.6828 122.679 17.5418C122.351 17.4007 122.058 17.1902 121.819 16.9249C121.581 16.6595 121.404 16.3456 121.3 16.005C121.195 15.6645 121.167 15.3053 121.215 14.9525C121.168 14.5987 121.197 14.2388 121.301 13.8971C121.405 13.5555 121.582 13.2402 121.819 12.9725C122.056 12.7048 122.347 12.491 122.674 12.3456C123.001 12.2001 123.356 12.1264 123.714 12.1295C125.221 12.1295 126.131 13.1567 126.131 14.8535V15.2256H122.305V15.2854C122.288 15.4836 122.313 15.6832 122.378 15.8713C122.443 16.0594 122.547 16.2319 122.683 16.3776C122.819 16.5234 122.984 16.6392 123.167 16.7177C123.35 16.7962 123.548 16.8356 123.748 16.8334C124.004 16.864 124.263 16.818 124.492 16.7014C124.722 16.5847 124.911 16.4027 125.037 16.1783L126.066 16.1783ZM122.305 14.4369H125.042C125.055 14.2556 125.03 14.0734 124.969 13.9021C124.908 13.7309 124.811 13.5743 124.686 13.4425C124.56 13.3106 124.408 13.2065 124.24 13.1367C124.071 13.0668 123.89 13.0329 123.708 13.0371C123.523 13.0348 123.339 13.0694 123.168 13.139C122.997 13.2085 122.841 13.3115 122.71 13.442C122.58 13.5724 122.476 13.7277 122.407 13.8985C122.337 14.0694 122.302 14.2525 122.305 14.4369H122.305Z" fill="white"/>
</g>
<defs>
<clipPath id="clip0_0_1321">
<rect width="144" height="48" fill="white"/>
</clipPath>
</defs>
</svg>
