<svg width="44" height="44" viewBox="0 0 44 44" fill="none" xmlns="http://www.w3.org/2000/svg">
<path d="M9.16687 16.5V31.1667M17.4169 16.5V31.1667M26.5835 16.5V31.1667M34.8335 16.5V31.1667" stroke="#FF8D0A" stroke-width="3" stroke-linecap="round" stroke-linejoin="round"/>
<path d="M35.5668 38.5C36.5935 38.5 37.1069 38.5 37.4991 38.3002C37.8441 38.1244 38.1245 37.844 38.3003 37.499C38.5001 37.1068 38.5001 36.5934 38.5001 35.5667V34.1C38.5001 33.0733 38.5001 32.5599 38.3003 32.1677C38.1245 31.8227 37.8441 31.5423 37.4991 31.3665C37.1069 31.1667 36.5935 31.1667 35.5668 31.1667H8.43346C7.40669 31.1667 6.89331 31.1667 6.50114 31.3665C6.15618 31.5423 5.87571 31.8227 5.69994 32.1677C5.50012 32.5599 5.50012 33.0733 5.50012 34.1L5.50012 35.5667C5.50012 36.5934 5.50012 37.1068 5.69994 37.499C5.87571 37.844 6.15618 38.1244 6.50114 38.3002C6.89331 38.5 7.40669 38.5 8.43345 38.5H35.5668Z" stroke="#00449C" stroke-width="3" stroke-linecap="round" stroke-linejoin="round"/>
<path d="M35.5668 16.5C36.5935 16.5 37.1069 16.5 37.4991 16.3002C37.8441 16.1244 38.1245 15.844 38.3003 15.499C38.5001 15.1068 38.5001 14.5934 38.5001 13.5667V11.5197C38.5001 10.6801 38.5001 10.2603 38.3513 9.91389C38.2201 9.60833 38.0083 9.34421 37.7384 9.14982C37.4325 8.92944 37.0227 8.83837 36.2031 8.65624L22.6365 5.64142C22.399 5.58865 22.2803 5.56227 22.1603 5.55175C22.0537 5.5424 21.9465 5.5424 21.84 5.55175C21.72 5.56227 21.6013 5.58865 21.3638 5.64142L7.79713 8.65624C6.97751 8.83837 6.56771 8.92944 6.26181 9.14982C5.99199 9.34421 5.78012 9.60832 5.6489 9.91389C5.50012 10.2603 5.50012 10.6801 5.50012 11.5197L5.50012 13.5667C5.50012 14.5934 5.50012 15.1068 5.69994 15.499C5.87571 15.844 6.15618 16.1244 6.50114 16.3002C6.89331 16.5 7.40669 16.5 8.43345 16.5H35.5668Z" stroke="#00449C" stroke-width="3" stroke-linecap="round" stroke-linejoin="round"/>
</svg>
