<svg width="28" height="28" viewBox="0 0 28 28" fill="none" xmlns="http://www.w3.org/2000/svg">
<path d="M16.3333 12.8335H9.33332M11.6667 17.5002H9.33332M18.6667 8.16683H9.33332M23.3333 7.9335V20.0668C23.3333 22.027 23.3333 23.0071 22.9518 23.7558C22.6163 24.4144 22.0809 24.9498 21.4223 25.2854C20.6736 25.6668 19.6935 25.6668 17.7333 25.6668H10.2667C8.30647 25.6668 7.32638 25.6668 6.57769 25.2854C5.91912 24.9498 5.38369 24.4144 5.04813 23.7558C4.66666 23.0071 4.66666 22.027 4.66666 20.0668V7.9335C4.66666 5.97331 4.66666 4.99322 5.04813 4.24453C5.38369 3.58596 5.91912 3.05053 6.57769 2.71497C7.32638 2.3335 8.30647 2.3335 10.2667 2.3335H17.7333C19.6935 2.3335 20.6736 2.3335 21.4223 2.71497C22.0809 3.05053 22.6163 3.58596 22.9518 4.24453C23.3333 4.99322 23.3333 5.97331 23.3333 7.9335Z" stroke="white" stroke-width="2.33333" stroke-linecap="round" stroke-linejoin="round"/>
</svg>
