<svg width="96" height="96" viewBox="0 0 96 96" fill="none" xmlns="http://www.w3.org/2000/svg">
<path d="M0 24C0 10.7452 10.7452 0 24 0H72C85.2548 0 96 10.7452 96 24V72C96 85.2548 85.2548 96 72 96H24C10.7452 96 0 85.2548 0 72V24Z" fill="url(#paint0_linear_90_1597)"/>
<path d="M34 42V58M43 42V58M53 42V58M62 42V58M30 61.2L30 62.8C30 63.9201 30 64.4802 30.218 64.908C30.4097 65.2843 30.7157 65.5903 31.092 65.7821C31.5198 66 32.0799 66 33.2 66H62.8C63.9201 66 64.4802 66 64.908 65.7821C65.2843 65.5903 65.5903 65.2843 65.782 64.908C66 64.4802 66 63.9201 66 62.8V61.2C66 60.0799 66 59.5199 65.782 59.0921C65.5903 58.7157 65.2843 58.4098 64.908 58.218C64.4802 58 63.9201 58 62.8 58H33.2C32.0799 58 31.5198 58 31.092 58.218C30.7157 58.4098 30.4097 58.7157 30.218 59.0921C30 59.5199 30 60.0799 30 61.2ZM47.3058 30.1543L32.5058 33.4432C31.6117 33.6419 31.1646 33.7412 30.8309 33.9816C30.5366 34.1937 30.3055 34.4818 30.1623 34.8152C30 35.1931 30 35.6511 30 36.567L30 38.8C30 39.9201 30 40.4802 30.218 40.908C30.4097 41.2843 30.7157 41.5903 31.092 41.7821C31.5198 42 32.0799 42 33.2 42H62.8C63.9201 42 64.4802 42 64.908 41.7821C65.2843 41.5903 65.5903 41.2843 65.782 40.908C66 40.4802 66 39.9201 66 38.8V36.567C66 35.6511 66 35.1931 65.8377 34.8152C65.6945 34.4818 65.4634 34.1937 65.1691 33.9816C64.8354 33.7412 64.3883 33.6419 63.4942 33.4432L48.6942 30.1543C48.4351 30.0967 48.3056 30.068 48.1747 30.0565C48.0585 30.0463 47.9415 30.0463 47.8253 30.0565C47.6944 30.068 47.5649 30.0967 47.3058 30.1543Z" stroke="white" stroke-width="4" stroke-linecap="round" stroke-linejoin="round"/>
<defs>
<linearGradient id="paint0_linear_90_1597" x1="48" y1="0" x2="48" y2="96" gradientUnits="userSpaceOnUse">
<stop stop-color="#22D2EE"/>
<stop offset="1" stop-color="#08B8D6"/>
</linearGradient>
</defs>
</svg>
