<svg width="96" height="96" viewBox="0 0 96 96" fill="none" xmlns="http://www.w3.org/2000/svg">
<path d="M0 24C0 10.7452 10.7452 0 24 0H72C85.2548 0 96 10.7452 96 24V72C96 85.2548 85.2548 96 72 96H24C10.7452 96 0 85.2548 0 72V24Z" fill="url(#paint0_linear_90_1595)"/>
<path d="M63.9998 49.9999C63.9998 59.9999 56.9998 64.9999 48.6798 67.8999C48.2441 68.0476 47.7708 68.0405 47.3398 67.8799C38.9998 64.9999 31.9998 59.9999 31.9998 49.9999V35.9999C31.9998 35.4695 32.2105 34.9608 32.5855 34.5857C32.9606 34.2106 33.4693 33.9999 33.9998 33.9999C37.9998 33.9999 42.9998 31.5999 46.4798 28.5599C46.9035 28.1979 47.4425 27.999 47.9998 27.999C48.557 27.999 49.096 28.1979 49.5198 28.5599C53.0198 31.6199 57.9998 33.9999 61.9998 33.9999C62.5302 33.9999 63.0389 34.2106 63.414 34.5857C63.789 34.9608 63.9998 35.4695 63.9998 35.9999V49.9999Z" stroke="white" stroke-width="4" stroke-linecap="round" stroke-linejoin="round"/>
<defs>
<linearGradient id="paint0_linear_90_1595" x1="48" y1="0" x2="48" y2="96" gradientUnits="userSpaceOnUse">
<stop stop-color="#0EA5E9"/>
<stop offset="1" stop-color="#00449C"/>
</linearGradient>
</defs>
</svg>
