<svg width="96" height="96" viewBox="0 0 96 96" fill="none" xmlns="http://www.w3.org/2000/svg">
<path d="M0 24C0 10.7452 10.7452 0 24 0H72C85.2548 0 96 10.7452 96 24V72C96 85.2548 85.2548 96 72 96H24C10.7452 96 0 85.2548 0 72V24Z" fill="url(#paint0_linear_90_1592)"/>
<path d="M52 46H40M44 54H40M56 38H40M64 37.6V58.4C64 61.7603 64 63.4405 63.346 64.7239C62.7708 65.8529 61.8529 66.7708 60.7239 67.346C59.4405 68 57.7603 68 54.4 68H41.6C38.2397 68 36.5595 68 35.2761 67.346C34.1471 66.7708 33.2292 65.8529 32.654 64.7239C32 63.4405 32 61.7603 32 58.4V37.6C32 34.2397 32 32.5595 32.654 31.2761C33.2292 30.1471 34.1471 29.2292 35.2761 28.654C36.5595 28 38.2397 28 41.6 28H54.4C57.7603 28 59.4405 28 60.7239 28.654C61.8529 29.2292 62.7708 30.1471 63.346 31.2761C64 32.5595 64 34.2397 64 37.6Z" stroke="white" stroke-width="4" stroke-linecap="round" stroke-linejoin="round"/>
<defs>
<linearGradient id="paint0_linear_90_1592" x1="48" y1="0" x2="48" y2="96" gradientUnits="userSpaceOnUse">
<stop stop-color="#EB4697"/>
<stop offset="1" stop-color="#DC2B79"/>
</linearGradient>
</defs>
</svg>
