<svg width="44" height="44" viewBox="0 0 44 44" fill="none" xmlns="http://www.w3.org/2000/svg">
<path d="M22 31.1667C22 36.2293 26.104 40.3333 31.1666 40.3333C36.2292 40.3333 40.3333 36.2293 40.3333 31.1667C40.3333 26.1041 36.2292 22 31.1666 22C26.104 22 22 26.1041 22 31.1667ZM22 31.1667C22 29.1027 22.6821 27.198 23.8333 25.6658V9.16667M22 31.1667C22 32.6798 22.3666 34.1073 23.0159 35.3652C21.4714 36.6699 17.904 37.5833 13.75 37.5833C8.18109 37.5833 3.66663 35.9417 3.66663 33.9167V9.16667M23.8333 9.16667C23.8333 11.1917 19.3188 12.8333 13.75 12.8333C8.18109 12.8333 3.66663 11.1917 3.66663 9.16667M23.8333 9.16667C23.8333 7.14162 19.3188 5.5 13.75 5.5C8.18109 5.5 3.66663 7.14162 3.66663 9.16667M3.66663 25.6667C3.66663 27.6917 8.18109 29.3333 13.75 29.3333C17.7631 29.3333 21.2287 28.4808 22.8518 27.2466M23.8333 17.4167C23.8333 19.4417 19.3188 21.0833 13.75 21.0833C8.18109 21.0833 3.66663 19.4417 3.66663 17.4167" stroke="#00449C" stroke-width="3" stroke-linecap="round" stroke-linejoin="round"/>
<path d="M22.0001 31.1667C22.0001 36.2293 26.1042 40.3333 31.1668 40.3333C36.2294 40.3333 40.3335 36.2293 40.3335 31.1667C40.3335 26.1041 36.2294 22 31.1668 22C26.1042 22 22.0001 26.1041 22.0001 31.1667ZM22.0001 31.1667C22.0001 29.1027 22.6823 27.198 23.8335 25.6658M22.0001 31.1667C22.0001 32.6798 22.3668 34.1073 23.016 35.3652" stroke="#FF8D0A" stroke-width="3" stroke-linecap="round" stroke-linejoin="round"/>
</svg>
