<svg width="28" height="28" viewBox="0 0 28 28" fill="none" xmlns="http://www.w3.org/2000/svg">
<path d="M17.5 14H9.33335M12.8334 18.6667H9.33335M18.6667 9.33333H9.33335M23.3334 12.8333V9.1C23.3334 7.13982 23.3334 6.15972 22.9519 5.41103C22.6163 4.75247 22.0809 4.21703 21.4223 3.88148C20.6736 3.5 20.8602 3.5 18.9 3.5H9.10002C7.13984 3.5 7.32641 3.5 6.57772 3.88148C5.91915 4.21703 5.38372 4.75247 5.04816 5.41103C4.66669 6.15972 4.66669 7.13982 4.66669 9.1V18.9C4.66669 20.8602 4.66669 21.8403 5.04816 22.589C5.38372 23.2475 5.91915 23.783 6.57772 24.1185C7.32641 24.5 7.13984 24.5 9.10002 24.5H15.75" stroke="white" stroke-width="2.33333" stroke-linecap="round" stroke-linejoin="round"/>
<path d="M22.1667 24.4999C22.1667 24.4999 25.6667 22.8317 25.6667 20.3293V17.41L23.1145 16.498C22.5013 16.2783 21.8307 16.2783 21.2175 16.498L18.6667 17.41V20.3293C18.6667 22.8317 22.1667 24.4999 22.1667 24.4999Z" stroke="white" stroke-width="2.33333" stroke-linecap="round" stroke-linejoin="round"/>
</svg>
