<svg width="28" height="28" viewBox="0 0 28 28" fill="none" xmlns="http://www.w3.org/2000/svg">
<path d="M25.6666 13.9999H22.7733C22.2634 13.9988 21.7672 14.1648 21.3606 14.4724C20.954 14.78 20.6593 15.2123 20.5216 15.7033L17.78 25.4566C17.7623 25.5172 17.7255 25.5704 17.675 25.6083C17.6245 25.6461 17.5631 25.6666 17.5 25.6666C17.4369 25.6666 17.3755 25.6461 17.325 25.6083C17.2745 25.5704 17.2376 25.5172 17.22 25.4566L10.78 2.54325C10.7623 2.48267 10.7255 2.42945 10.675 2.39159C10.6245 2.35372 10.5631 2.33325 10.5 2.33325C10.4369 2.33325 10.3755 2.35372 10.325 2.39159C10.2745 2.42945 10.2376 2.48267 10.22 2.54325L7.47831 12.2966C7.34119 12.7856 7.04826 13.2165 6.64399 13.5239C6.23972 13.8313 5.74619 13.9985 5.23831 13.9999H2.33331" stroke="white" stroke-width="2.33333" stroke-linecap="round" stroke-linejoin="round"/>
</svg>
