<svg width="150" height="33" viewBox="0 0 150 33" fill="none" xmlns="http://www.w3.org/2000/svg">
<path d="M98.8613 9.95557C100.27 9.9556 101.534 10.2288 102.655 10.7749C103.41 11.1333 104.07 11.5864 104.639 12.1304V10.3872H111.106V31.3423H104.639V29.6411C104.088 30.1624 103.442 30.6015 102.698 30.9546C101.549 31.5006 100.27 31.7739 98.8613 31.7739C96.9354 31.7739 95.21 31.2997 93.6865 30.3511C92.1919 29.4025 90.9995 28.1086 90.1084 26.4702C89.246 24.8317 88.8145 22.9632 88.8145 20.8647C88.8145 18.7663 89.246 16.8978 90.1084 15.2593C90.9995 13.6209 92.1919 12.327 93.6865 11.3784C95.21 10.4298 96.9354 9.95557 98.8613 9.95557ZM42.4131 19.7612L49.1836 10.3872H56.5566L48.8926 20.2651L56.9873 31.3423H49.2266L42.4131 21.2427V31.3423H35.8164V0.0385742H42.4131V19.7612ZM66.5479 31.3423H59.9502V10.3872H66.5479V31.3423ZM83.7314 9.95557C84.7375 9.95557 85.6149 10.114 86.3623 10.4302C87.1383 10.7176 87.8138 11.1777 88.3887 11.8101L84.4648 16.7681C84.1774 16.452 83.8178 16.2081 83.3867 16.0356C82.9556 15.8632 82.467 15.7769 81.9209 15.7769C80.8286 15.7769 79.9522 16.1221 79.291 16.812C78.6587 17.4731 78.3418 18.4787 78.3418 19.8296V31.3423H71.7451V10.3872H78.3418V11.9819C79.6353 10.631 81.432 9.95563 83.7314 9.95557ZM141.355 9.95557C142.965 9.95563 144.388 10.3009 145.624 10.9907C146.889 11.6518 147.88 12.6148 148.599 13.8794C149.346 15.1154 149.72 16.6103 149.72 18.3638V31.3423H143.123V19.0972C143.123 18.0336 142.792 17.2141 142.131 16.6392C141.499 16.0356 140.708 15.7339 139.76 15.7339C139.099 15.7339 138.51 15.8772 137.992 16.1646C137.475 16.4232 137.057 16.797 136.741 17.2856C136.454 17.7743 136.311 18.3785 136.311 19.0972V31.3423H129.713V19.0972C129.713 18.0337 129.383 17.2141 128.722 16.6392C128.089 16.0355 127.298 15.7339 126.35 15.7339C125.689 15.7339 125.099 15.8772 124.582 16.1646C124.065 16.4232 123.648 16.7972 123.332 17.2856C123.045 17.7743 122.9 18.3785 122.9 19.0972V31.3423H116.304V10.3872H122.9V11.936C123.34 11.5522 123.829 11.2228 124.366 10.9478C125.602 10.2866 126.997 9.95558 128.549 9.95557C130.015 9.95557 131.323 10.2866 132.473 10.9478C133.332 11.4298 134.061 12.05 134.66 12.8071C135.304 12.0829 136.055 11.4918 136.914 11.0337C138.236 10.3151 139.717 9.95557 141.355 9.95557ZM100.241 15.9058C99.3214 15.9058 98.5018 16.122 97.7832 16.5532C97.0934 16.9557 96.5327 17.5305 96.1016 18.2778C95.6992 19.0252 95.498 19.8875 95.498 20.8647C95.4981 21.8133 95.6991 22.6613 96.1016 23.4087C96.504 24.156 97.0646 24.7451 97.7832 25.1763C98.5018 25.6075 99.3071 25.8237 100.198 25.8237C101.607 25.8236 102.742 25.3636 103.604 24.4438C104.467 23.4953 104.897 22.302 104.897 20.8647C104.897 19.8875 104.696 19.0252 104.294 18.2778C103.92 17.5304 103.374 16.9557 102.655 16.5532C101.965 16.1221 101.161 15.9058 100.241 15.9058ZM63.2705 0.254395C64.3052 0.254395 65.1533 0.598868 65.8145 1.28857C66.4756 1.97847 66.8066 2.84163 66.8066 3.87646C66.8066 4.8824 66.4755 5.74483 65.8145 6.46338C65.1533 7.15317 64.3053 7.49756 63.2705 7.49756C62.2358 7.49754 61.3734 7.15316 60.6836 6.46338C60.0225 5.74483 59.6915 4.8824 59.6914 3.87646C59.6914 2.84163 60.0224 1.97847 60.6836 1.28857C61.3734 0.598877 62.2358 0.254412 63.2705 0.254395Z" fill="white"/>
<path d="M0 17.8243V9.82154L13.0954 0L26.1908 9.82154V17.8243L13.0954 8.00274L0 17.8243Z" fill="#FF8D0A"/>
<path d="M26.1904 23.0991V31.2837H0V23.0991L6.54785 18.188V24.7358H19.6436V18.188L26.1904 23.0991Z" fill="white"/>
</svg>
