<svg width="120" height="26" viewBox="0 0 120 26" fill="none" xmlns="http://www.w3.org/2000/svg">
<path d="M79.0887 7.96461C80.2155 7.96461 81.228 8.18296 82.1248 8.61989C82.7281 8.90648 83.2559 9.2689 83.7108 9.70387V8.30934H88.8856V25.074H83.7108V23.7127C83.2699 24.1297 82.7537 24.481 82.159 24.7634C81.2391 25.2004 80.2155 25.4187 79.0887 25.4187C77.5482 25.4187 76.1687 25.0397 74.95 24.281C73.7543 23.5222 72.7996 22.4872 72.0867 21.1765C71.3969 19.8658 71.0516 18.3708 71.0516 16.6922C71.0516 15.0134 71.3969 13.5186 72.0867 12.2078C72.7996 10.897 73.7542 9.86217 74.95 9.10329C76.1687 8.34455 77.5481 7.96465 79.0887 7.96461ZM33.9305 15.8093L39.3465 8.30934H45.2449L39.1141 16.2127L45.5897 25.074H39.3807L33.9305 16.9939V25.074H28.6531V0.0310211H33.9305V15.8093ZM53.2381 25.074H47.9608V8.30934H53.2381V25.074ZM66.9852 7.96461C67.7901 7.96461 68.4918 8.09154 69.0897 8.3445C69.7105 8.57445 70.2509 8.94217 70.7108 9.44801L67.5721 13.4148C67.3422 13.1619 67.0546 12.9668 66.7098 12.8289C66.3649 12.6909 65.9738 12.6219 65.5369 12.6218C64.6632 12.6218 63.9613 12.8972 63.4324 13.449C62.9265 13.9779 62.6737 14.7832 62.6737 15.864V25.074H57.3963V8.30934H62.6737V9.58571C63.7084 8.50506 65.1457 7.96467 66.9852 7.96461ZM113.084 7.96461C114.372 7.96461 115.51 8.24087 116.499 8.79274C117.511 9.32166 118.304 10.0924 118.879 11.1043C119.477 12.0931 119.776 13.2885 119.776 14.6912V25.074H114.498V15.2781C114.498 14.4272 114.234 13.7712 113.705 13.3113C113.199 12.8284 112.566 12.5867 111.807 12.5867C111.279 12.5867 110.807 12.7025 110.393 12.9324C109.98 13.1393 109.646 13.4381 109.393 13.8289C109.163 14.2198 109.049 14.7032 109.049 15.2781V25.074H103.77V15.2781C103.77 14.4272 103.506 13.7712 102.977 13.3113C102.471 12.8284 101.839 12.5867 101.08 12.5867C100.551 12.5867 100.08 12.7024 99.6658 12.9324C99.2519 13.1394 98.9178 13.4379 98.6649 13.8289C98.435 14.2198 98.3201 14.7033 98.3201 15.2781V25.074H93.0428V8.30934H98.3201V9.55348C98.6725 9.24559 99.062 8.97908 99.493 8.75856C100.482 8.22971 101.597 7.96468 102.839 7.96461C104.012 7.96461 105.058 8.22964 105.978 8.75856C106.667 9.14471 107.249 9.64206 107.729 10.2488C108.244 9.66892 108.844 9.19361 109.531 8.82692C110.589 8.25207 111.773 7.96465 113.084 7.96461ZM80.1932 12.7254C79.4573 12.7254 78.8013 12.898 78.2264 13.2429C77.6748 13.5648 77.2265 14.0243 76.8817 14.6218C76.5597 15.2197 76.3983 15.9103 76.3983 16.6922C76.3983 17.4509 76.5597 18.1295 76.8817 18.7273C77.2036 19.325 77.6516 19.7965 78.2264 20.1414C78.8012 20.4863 79.4452 20.6589 80.158 20.659C81.2848 20.659 82.1937 20.2913 82.8836 19.5554C83.5735 18.7966 83.9178 17.8419 83.9178 16.6922C83.9178 15.9103 83.7573 15.2197 83.4354 14.6218C83.1365 14.0242 82.6994 13.5648 82.1248 13.2429C81.573 12.8981 80.9289 12.7254 80.1932 12.7254ZM50.616 0.203873C51.4437 0.203873 52.1223 0.479386 52.6512 1.03102C53.1801 1.58294 53.4451 2.27346 53.4451 3.10133C53.4451 3.90608 53.18 4.59583 52.6512 5.17067C52.1223 5.72244 51.4438 5.99879 50.616 5.99879C49.7884 5.99869 49.0985 5.72248 48.5467 5.17067C48.0179 4.59584 47.7538 3.90604 47.7537 3.10133C47.7537 2.27346 48.0178 1.58294 48.5467 1.03102C49.0985 0.479285 49.7884 0.203974 50.616 0.203873Z" fill="#122758"/>
<path d="M0 14.2594V7.85723L10.4763 0L20.9526 7.85723V14.2594L10.4763 6.40219L0 14.2594Z" fill="#FF8D0A"/>
<path d="M20.9521 18.4791V25.027H0V18.4791L5.23828 14.5504V19.7887H15.7148V14.5504L20.9521 18.4791Z" fill="#175AB3"/>
</svg>
