<svg width="44" height="44" viewBox="0 0 44 44" fill="none" xmlns="http://www.w3.org/2000/svg">
<path d="M27.5 22H14.6666M20.1666 29.3333H14.6666M29.3333 14.6667H14.6666M36.6666 20.1667V14.3C36.6666 11.2197 36.6666 9.67957 36.0672 8.50305C35.5399 7.46816 34.6985 6.62677 33.6636 6.09946C32.4871 5.5 32.7803 5.5 29.7 5.5H14.3C11.2197 5.5 11.5129 5.5 10.3364 6.09946C9.30147 6.62677 8.46008 7.46816 7.93278 8.50305C7.33331 9.67957 7.33331 11.2197 7.33331 14.3V29.7C7.33331 32.7803 7.33331 34.3204 7.93278 35.4969C8.46008 36.5318 9.30147 37.3732 10.3364 37.9005C11.5129 38.5 11.2197 38.5 14.3 38.5H24.75" stroke="#00449C" stroke-width="3" stroke-linecap="round" stroke-linejoin="round"/>
<path d="M34.8333 38.5C34.8333 38.5 40.3333 35.8785 40.3333 31.9463V27.3586L36.3227 25.9256C35.3591 25.5804 34.3053 25.5804 33.3417 25.9256L29.3333 27.3586V31.9463C29.3333 35.8785 34.8333 38.5 34.8333 38.5Z" stroke="#FF8D0A" stroke-width="3" stroke-linecap="round" stroke-linejoin="round"/>
</svg>
