<svg width="28" height="28" viewBox="0 0 28 28" fill="none" xmlns="http://www.w3.org/2000/svg">
<path d="M18.6667 18.6666L22.1667 9.33325L25.6667 18.6666C24.6517 19.4249 23.4267 19.8333 22.1667 19.8333C20.9067 19.8333 19.6817 19.4249 18.6667 18.6666Z" stroke="white" stroke-width="2.33333" stroke-linecap="round" stroke-linejoin="round"/>
<path d="M2.33331 18.6666L5.83331 9.33325L9.33331 18.6666C8.31831 19.4249 7.09331 19.8333 5.83331 19.8333C4.57331 19.8333 3.34831 19.4249 2.33331 18.6666Z" stroke="white" stroke-width="2.33333" stroke-linecap="round" stroke-linejoin="round"/>
<path d="M8.16669 24.5H19.8334" stroke="white" stroke-width="2.33333" stroke-linecap="round" stroke-linejoin="round"/>
<path d="M14 3.5V24.5" stroke="white" stroke-width="2.33333" stroke-linecap="round" stroke-linejoin="round"/>
<path d="M3.5 8.16659H5.83333C8.16667 8.16659 11.6667 6.99992 14 5.83325C16.3333 6.99992 19.8333 8.16659 22.1667 8.16659H24.5" stroke="white" stroke-width="2.33333" stroke-linecap="round" stroke-linejoin="round"/>
</svg>
